<?xml version="1.0" standalone="no"?>
<!DOCTYPE svg PUBLIC "-//W3C//DTD SVG 20010904//EN"
 "http://www.w3.org/TR/2001/REC-SVG-20010904/DTD/svg10.dtd">
<svg version="1.0" xmlns="http://www.w3.org/2000/svg"
 width="840.000000pt" height="214.000000pt" viewBox="0 0 840.000000 214.000000"
 preserveAspectRatio="xMidYMid meet">

<g transform="translate(0.000000,214.000000) scale(0.100000,-0.100000)"
fill="#000000" stroke="none">
<path d="M4643 1833 c9 -2 23 -2 30 0 6 3 -1 5 -18 5 -16 0 -22 -2 -12 -5z"/>
<path d="M4918 1833 c6 -2 18 -2 25 0 6 3 1 5 -13 5 -14 0 -19 -2 -12 -5z"/>
<path d="M5228 1833 c7 -3 16 -2 19 1 4 3 -2 6 -13 5 -11 0 -14 -3 -6 -6z"/>
<path d="M5518 1833 c7 -3 16 -2 19 1 4 3 -2 6 -13 5 -11 0 -14 -3 -6 -6z"/>
<path d="M5828 1833 c7 -3 16 -2 19 1 4 3 -2 6 -13 5 -11 0 -14 -3 -6 -6z"/>
<path d="M5998 1833 c7 -3 16 -2 19 1 4 3 -2 6 -13 5 -11 0 -14 -3 -6 -6z"/>
<path d="M6278 1833 c7 -3 16 -2 19 1 4 3 -2 6 -13 5 -11 0 -14 -3 -6 -6z"/>
<path d="M5551 1827 c2 -1 13 -9 24 -17 19 -14 19 -14 6 3 -7 9 -18 17 -24 17
-6 0 -8 -1 -6 -3z"/>
<path d="M6236 1814 c-23 -23 -20 -30 4 -9 11 10 20 20 20 22 0 7 -9 2 -24
-13z"/>
<path d="M6335 1810 c10 -11 20 -20 23 -20 3 0 -3 9 -13 20 -10 11 -20 20 -23
20 -3 0 3 -9 13 -20z"/>
<path d="M4870 1803 c0 -6 8 -17 18 -24 16 -13 16 -13 2 6 -8 11 -16 22 -17
24 -2 2 -3 0 -3 -6z"/>
<path d="M5884 1695 c0 -60 1 -84 3 -52 2 32 2 81 0 110 -2 29 -3 3 -3 -58z"/>
<path d="M5934 1685 c0 -55 1 -76 3 -47 2 29 2 74 0 100 -2 26 -3 2 -3 -53z"/>
<path d="M6210 1768 c0 -5 35 -7 78 -7 78 2 69 6 -26 11 -28 2 -52 0 -52 -4z"/>
<path d="M5441 1733 c-1 -56 36 -103 84 -103 48 0 85 47 84 103 l-2 42 -6 -47
c-8 -59 -34 -88 -76 -88 -42 0 -68 29 -76 88 l-6 47 -2 -42z"/>
<path d="M4692 1718 c9 -7 18 -20 21 -28 3 -8 6 -3 6 13 1 21 -3 27 -21 27
-19 0 -20 -2 -6 -12z"/>
<path d="M4602 1704 c-24 -17 -29 -43 -10 -62 19 -19 73 -14 99 9 l24 21 -25
-16 c-31 -20 -86 -21 -94 -1 -9 23 3 43 32 54 15 5 20 10 12 10 -9 1 -26 -6
-38 -15z"/>
<path d="M6211 1698 c1 -17 3 -18 6 -6 4 14 19 18 91 21 l87 3 -92 2 c-91 2
-93 1 -92 -20z"/>
<path d="M798 1703 c6 -2 18 -2 25 0 6 3 1 5 -13 5 -14 0 -19 -2 -12 -5z"/>
<path d="M4763 1675 c0 -22 2 -30 4 -17 2 12 2 30 0 40 -3 9 -5 -1 -4 -23z"/>
<path d="M1382 1315 c0 -16 2 -22 5 -12 2 9 2 23 0 30 -3 6 -5 -1 -5 -18z"/>
<path d="M1235 1240 c3 -5 8 -10 11 -10 2 0 4 5 4 10 0 6 -5 10 -11 10 -5 0
-7 -4 -4 -10z"/>
<path d="M880 1216 c0 -21 18 -35 116 -90 64 -36 121 -66 125 -66 5 0 9 10 9
23 0 18 -22 35 -114 90 -63 37 -119 67 -125 67 -6 0 -11 -11 -11 -24z m71 -17
c59 -29 143 -84 158 -103 24 -29 -8 -19 -96 31 -117 66 -170 128 -62 72z"/>
<path d="M882 1135 c2 -18 16 -33 46 -51 54 -32 55 -25 1 10 -30 20 -40 33
-36 47 3 10 1 19 -5 19 -5 0 -8 -11 -6 -25z"/>
<path d="M1253 1100 c0 -36 2 -50 4 -32 2 17 2 47 0 65 -2 17 -4 3 -4 -33z"/>
<path d="M950 1126 c0 -3 9 -10 20 -16 11 -6 20 -8 20 -6 0 3 -9 10 -20 16
-11 6 -20 8 -20 6z"/>
<path d="M1000 1098 c0 -2 27 -22 60 -43 33 -21 60 -45 60 -52 0 -17 -5 -16
-40 2 -17 9 -30 13 -30 11 0 -7 56 -36 70 -36 17 0 11 44 -7 56 -57 34 -113
65 -113 62z"/>
<path d="M884 1065 c-3 -8 -4 -21 -1 -29 6 -14 216 -136 235 -136 18 0 14 35
-5 52 -10 9 -34 23 -53 32 -34 16 -34 16 -10 -1 95 -69 91 -92 -7 -37 -102 57
-143 85 -143 100 0 17 5 17 31 4 10 -6 19 -8 19 -6 0 3 -14 13 -30 21 -27 14
-31 14 -36 0z"/>
<path d="M980 1056 c0 -3 9 -10 20 -16 11 -6 20 -8 20 -6 0 3 -9 10 -20 16
-11 6 -20 8 -20 6z"/>
<path d="M960 1036 c0 -3 14 -12 30 -21 17 -9 30 -13 30 -11 0 3 -13 12 -30
21 -16 9 -30 13 -30 11z"/>
<path d="M2614 895 c0 -66 1 -92 3 -57 2 34 2 88 0 120 -2 31 -3 3 -3 -63z"/>
<path d="M2900 986 c0 -2 8 -10 18 -17 15 -13 16 -12 3 4 -13 16 -21 21 -21
13z"/>
<path d="M3538 803 c12 -2 30 -2 40 0 9 3 -1 5 -23 4 -22 0 -30 -2 -17 -4z"/>
<path d="M4623 803 c9 -2 25 -2 35 0 9 3 1 5 -18 5 -19 0 -27 -2 -17 -5z"/>
<path d="M5758 803 c12 -2 30 -2 40 0 9 3 -1 5 -23 4 -22 0 -30 -2 -17 -4z"/>
<path d="M7848 803 c12 -2 30 -2 40 0 9 3 -1 5 -23 4 -22 0 -30 -2 -17 -4z"/>
<path d="M3450 765 c-13 -14 -22 -27 -19 -29 2 -2 14 10 27 25 29 36 24 38 -8
4z"/>
<path d="M3635 770 c10 -11 20 -20 23 -20 3 0 -3 9 -13 20 -10 11 -20 20 -23
20 -3 0 3 -9 13 -20z"/>
<path d="M7764 768 l-19 -23 23 19 c12 11 22 21 22 23 0 8 -8 2 -26 -19z"/>
<path d="M5669 763 c-13 -16 -12 -17 4 -4 9 7 17 15 17 17 0 8 -8 3 -21 -13z"/>
<path d="M4754 700 c-5 -5 -63 -11 -129 -13 l-120 -3 133 -2 c112 -2 132 0
132 13 0 18 -3 18 -16 5z"/>
<path d="M3483 683 c37 -2 97 -2 135 0 37 2 6 3 -68 3 -74 0 -105 -1 -67 -3z"/>
<path d="M5703 683 c37 -2 97 -2 135 0 37 2 6 3 -68 3 -74 0 -105 -1 -67 -3z"/>
<path d="M7793 683 c37 -2 97 -2 135 0 37 2 6 3 -68 3 -74 0 -105 -1 -67 -3z"/>
<path d="M2612 610 c0 -14 2 -19 5 -12 2 6 2 18 0 25 -3 6 -5 1 -5 -13z"/>
<path d="M888 603 c101 -2 263 -2 360 0 97 1 15 2 -183 2 -198 0 -278 -1 -177
-2z"/>
</g>
</svg>
